<svg version="1.1" id="Layer_1" xmlns="http://www.w3.org/2000/svg" xmlns:xlink="http://www.w3.org/1999/xlink" x="0px" y="0px"
	 width="100%" viewBox="0 0 500 500" enable-background="new 0 0 500 500" xml:space="preserve">
<path fill="#000000" opacity="1.000000" stroke="none" 
	d="
M269.000000,501.000000 
	C179.333359,501.000000 90.166710,501.000000 1.000048,501.000000 
	C1.000032,334.333405 1.000032,167.666794 1.000016,1.000137 
	C167.666565,1.000092 334.333130,1.000092 500.999756,1.000046 
	C500.999847,167.666519 500.999847,334.333038 500.999939,500.999786 
	C423.833344,501.000000 346.666656,501.000000 269.000000,501.000000 
M174.220764,91.832695 
	C161.365280,94.707954 149.717682,99.845978 140.356888,109.533501 
	C144.237289,112.936790 144.182556,114.463280 139.922424,116.552216 
	C130.999268,120.927650 122.990341,126.496346 115.898430,133.489471 
	C113.344559,136.007767 113.621338,137.482147 117.112785,138.977249 
	C115.024780,141.649841 111.069328,144.719772 111.589394,146.423721 
	C113.101364,151.377579 109.244591,152.513748 107.349426,155.113495 
	C106.819832,155.839966 106.526756,156.837112 106.408157,157.746979 
	C106.014488,160.767075 105.888237,163.826126 105.407242,166.829880 
	C104.347382,173.448593 103.158371,180.047165 101.954712,186.641678 
	C101.781250,187.591949 101.234871,188.474182 100.705727,189.767609 
	C98.945404,187.647964 97.633827,186.068665 96.166382,184.301682 
	C94.255402,186.595673 92.370247,188.613785 90.817085,190.861298 
	C90.301376,191.607544 90.419418,192.988037 90.626480,194.001175 
	C91.283852,197.217667 92.805687,200.418106 92.711098,203.586472 
	C92.596031,207.440964 90.656967,211.228577 90.449242,215.095734 
	C90.160934,220.462952 87.683632,225.989624 90.446365,231.788315 
	C89.009888,231.287582 87.351074,230.411148 87.149330,229.275818 
	C86.487251,225.549911 86.552383,221.697601 85.941200,217.958740 
	C85.593315,215.830612 84.472572,213.828812 83.699867,211.770142 
	C82.927582,211.990631 82.155304,212.211121 81.383026,212.431610 
	C82.196068,217.843109 82.259308,223.508347 83.985985,228.610657 
	C87.104263,237.825195 89.178291,246.855911 85.880814,256.391968 
	C85.727951,256.834015 85.485199,257.244995 85.217880,257.811127 
	C83.917244,257.671692 82.695030,257.540649 80.637016,257.320007 
	C85.285530,275.069733 89.795815,292.291687 94.306107,309.513641 
	C94.778107,309.424072 95.250114,309.334473 95.722122,309.244904 
	C96.288712,308.294678 96.855301,307.344452 97.922195,305.555145 
	C98.675163,312.277527 99.245110,318.215546 100.086304,324.114868 
	C100.242897,325.213043 101.458351,326.180756 102.241646,327.163605 
	C103.131767,328.280579 104.483612,329.219818 104.884506,330.475800 
	C105.201477,331.468842 104.384193,332.823914 103.915512,334.608948 
	C105.301971,337.034790 106.336113,341.386932 109.010399,342.972198 
	C113.952599,345.901886 115.703125,350.041931 117.087082,354.975067 
	C117.731384,357.271637 118.547890,359.848480 120.123703,361.498749 
	C127.258530,368.970734 134.148926,376.830383 142.147293,383.286865 
	C153.783081,392.679596 166.002594,401.435211 178.531433,409.606598 
	C187.507370,415.460785 197.235062,420.253662 206.932373,424.880859 
	C214.308502,428.400452 222.215088,430.636475 230.082260,429.773163 
	C230.645462,427.165131 231.093475,425.090454 231.593628,422.774353 
	C251.742661,425.289764 270.794464,422.000336 289.418884,417.504822 
	C290.853333,421.637604 289.155243,426.719421 295.950592,427.047028 
	C291.827301,423.893951 292.484375,420.590759 294.392059,417.468048 
	C296.290100,414.361115 298.716736,413.606934 302.130219,416.010712 
	C303.697815,417.114594 306.303711,417.258636 308.361664,417.055756 
	C314.695129,416.431427 320.906586,411.601624 327.385071,416.772400 
	C327.848724,417.142548 329.103180,416.933746 329.763458,416.576019 
	C333.018005,414.812744 335.062592,415.690796 335.790039,420.501648 
	C337.438599,417.801971 338.420532,416.193939 339.394958,414.598267 
	C336.041565,413.879364 333.078827,413.244232 329.928192,412.568817 
	C330.563629,409.844299 331.037262,407.813690 331.401428,406.252289 
	C335.195953,405.972168 338.975342,406.593323 341.862976,405.269440 
	C346.217468,403.273071 350.021576,400.015533 353.922058,397.109406 
	C356.941223,394.859863 360.211060,392.693726 362.504517,389.804016 
	C364.311310,387.527496 364.799438,384.204437 366.016144,380.965881 
	C360.889618,381.876556 355.708557,382.796936 350.527527,383.717285 
	C350.039032,383.092133 349.550507,382.466980 349.062012,381.841827 
	C350.262054,381.309906 351.451508,380.350830 352.663910,380.320862 
	C357.576294,380.199524 358.425720,375.941162 360.503906,372.964020 
	C363.996979,367.960052 367.162689,362.710663 370.880676,357.883881 
	C380.833374,344.963196 391.723602,332.695312 400.810730,319.204468 
	C405.915588,311.625732 412.568420,304.304077 413.483246,294.362885 
	C413.505676,294.118835 413.941315,293.912811 414.346619,293.539520 
	C415.608429,293.900360 416.973450,294.290680 419.267242,294.946625 
	C418.874756,291.006561 418.778107,287.597565 418.152740,284.288483 
	C417.005829,278.219971 418.121429,276.173798 423.745422,276.170532 
	C422.934296,274.059448 422.203461,272.157288 421.363861,269.972107 
	C426.530029,264.623108 427.154480,258.380524 424.370636,251.289246 
	C423.208832,248.329788 423.318329,244.871246 422.849762,241.639633 
	C423.347260,241.574707 423.844788,241.509781 424.342285,241.444855 
	C424.527100,242.315506 424.563416,243.256195 424.933014,244.039688 
	C425.433624,245.100876 426.189758,246.041519 426.836304,247.033875 
	C427.256500,246.023407 428.115356,244.963074 428.007324,244.012680 
	C427.769012,241.916214 427.270752,239.781433 426.467255,237.831802 
	C424.982849,234.230179 424.969208,230.270874 422.339569,226.798035 
	C420.808044,224.775482 422.272400,220.648621 421.943146,217.515381 
	C421.363220,211.996826 424.760895,205.282486 417.462585,201.612793 
	C417.172821,201.467087 417.215546,200.692047 417.071411,200.220001 
	C411.621826,182.372437 403.963531,165.769485 392.601685,150.683304 
	C381.524872,135.975555 368.609039,123.601486 353.279572,113.588249 
	C349.773315,111.297943 346.306549,108.947121 342.793518,106.605438 
	C347.949097,99.752335 347.949097,99.752335 345.476562,96.928497 
	C344.133240,102.981728 339.618134,105.629105 334.957458,102.680092 
	C333.493835,101.753998 333.395691,98.832817 331.985870,97.629082 
	C327.241302,93.578049 322.097290,89.998604 317.280029,86.027756 
	C313.313019,82.757751 309.436554,81.332993 305.192657,85.688515 
	C302.475861,83.111275 300.083099,80.841377 298.466278,79.307594 
	C294.211273,78.468590 290.543732,78.074799 287.088013,77.000008 
	C278.039490,74.185791 269.570129,73.610634 261.082153,79.403503 
	C258.658813,81.057388 253.868225,82.789825 250.682495,78.326866 
	C250.065811,77.462921 246.651611,77.258949 246.499039,77.609177 
	C245.105240,80.808990 243.385117,80.261887 241.029312,78.792740 
	C240.403870,78.402695 239.047882,79.091187 238.061203,79.394630 
	C236.505371,79.873138 234.994843,80.837593 233.435745,80.903740 
	C228.675827,81.105713 223.901871,80.977066 218.807678,80.977066 
	C218.679398,77.552368 216.090164,76.002396 212.894669,77.207260 
	C210.470352,78.121338 207.890793,80.213181 206.750198,82.472504 
	C205.715439,84.522217 206.531357,87.506210 206.531357,90.472672 
	C205.613495,90.797234 204.273499,91.768166 203.247040,91.506950 
	C201.992081,91.187576 201.112122,89.602158 199.860413,88.999733 
	C198.776840,88.478233 197.345306,88.728409 196.170868,88.331703 
	C195.227631,88.013115 194.439056,87.236572 192.927063,86.225296 
	C187.566391,87.802040 181.267563,89.654732 174.220764,91.832695 
M261.272858,429.989471 
	C264.039429,429.989471 266.806000,429.989471 269.572571,429.989471 
	C269.803497,429.668640 270.034454,429.347809 270.265381,429.027008 
	C269.102081,428.476593 267.938751,427.926178 266.631927,427.307831 
	C268.202393,426.029816 269.127167,425.277252 270.051910,424.524689 
	C269.966248,424.190430 269.880585,423.856201 269.794952,423.521973 
	C259.822144,424.405182 249.849335,425.288361 239.876526,426.171539 
	C239.842941,426.572998 239.809372,426.974426 239.775787,427.375885 
	C246.666458,428.246979 253.557144,429.118103 261.272858,429.989471 
M377.172180,367.127960 
	C378.915161,366.525452 380.658112,365.922974 382.592773,365.254211 
	C382.592773,362.695770 382.592773,360.048737 382.592773,356.949707 
	C376.809662,360.778564 373.277588,365.274597 373.528015,372.758545 
	C375.021454,372.287354 376.648285,372.008545 377.939056,371.195862 
	C378.247284,371.001862 377.434387,369.027100 377.172180,367.127960 
M402.458252,343.855133 
	C402.458557,342.232513 402.815735,340.499512 402.357544,339.018768 
	C401.911499,337.577057 400.871521,335.841156 399.628204,335.299194 
	C398.853760,334.961609 396.943787,336.369324 396.054321,337.424438 
	C395.329712,338.284058 395.363556,339.783112 394.780975,342.124054 
	C396.559143,340.446899 397.491608,339.567413 399.211487,337.945221 
	C398.263458,342.370483 397.545105,345.723541 396.826752,349.076630 
	C397.419067,349.389709 398.011383,349.702820 398.603699,350.015900 
	C400.018829,348.188904 401.433960,346.361877 402.458252,343.855133 
M84.285011,190.062561 
	C83.696457,188.676224 83.107910,187.289902 82.431862,185.697495 
	C80.367508,188.712463 78.849724,190.929184 77.191414,193.351135 
	C75.817696,192.099121 74.963837,191.320908 73.157860,189.674942 
	C73.995758,193.221619 74.544495,195.544327 75.142891,198.077271 
	C78.174782,195.518509 81.052322,193.090012 84.285011,190.062561 
M392.783264,363.341980 
	C391.842163,361.587585 390.901062,359.833191 389.475189,357.175018 
	C387.690002,360.569214 386.599579,362.642456 385.439484,364.848145 
	C388.253937,366.905853 390.431610,366.326050 392.783264,363.341980 
M406.993500,324.948975 
	C406.197449,323.252625 405.401398,321.556305 404.605347,319.859955 
	C404.206848,320.048004 403.808319,320.236023 403.409821,320.424072 
	C402.563202,322.991089 401.716583,325.558105 400.900146,328.033600 
	C404.689423,330.471039 405.566376,327.731232 406.993500,324.948975 
M230.839630,76.381706 
	C232.941391,76.604004 235.043167,76.826309 237.220520,77.056602 
	C237.433258,72.612747 235.471817,71.893242 232.581772,72.012566 
	C229.733292,72.130173 229.825592,73.749489 230.839630,76.381706 
z"/>
<path fill="#52067B" opacity="1.000000" stroke="none" 
	d="
M174.594757,91.670059 
	C181.267563,89.654732 187.566391,87.802040 192.927063,86.225296 
	C194.439056,87.236572 195.227631,88.013115 196.170868,88.331703 
	C197.345306,88.728409 198.776840,88.478233 199.860413,88.999733 
	C201.112122,89.602158 201.992081,91.187576 203.247040,91.506950 
	C204.273499,91.768166 205.613495,90.797234 206.531357,90.472672 
	C206.531357,87.506210 205.715439,84.522217 206.750198,82.472504 
	C207.890793,80.213181 210.470352,78.121338 212.894669,77.207260 
	C216.090164,76.002396 218.679398,77.552368 218.807678,80.977066 
	C223.901871,80.977066 228.675827,81.105713 233.435745,80.903740 
	C234.994843,80.837593 236.505371,79.873138 238.061203,79.394630 
	C239.047882,79.091187 240.403870,78.402695 241.029312,78.792740 
	C243.385117,80.261887 245.105240,80.808990 246.499039,77.609177 
	C246.651611,77.258949 250.065811,77.462921 250.682495,78.326866 
	C253.868225,82.789825 258.658813,81.057388 261.082153,79.403503 
	C269.570129,73.610634 278.039490,74.185791 287.088013,77.000008 
	C290.543732,78.074799 294.211273,78.468590 298.466278,79.307594 
	C300.083099,80.841377 302.475861,83.111275 305.192657,85.688515 
	C309.436554,81.332993 313.313019,82.757751 317.280029,86.027756 
	C322.097290,89.998604 327.241302,93.578049 331.985870,97.629082 
	C333.395691,98.832817 333.493835,101.753998 334.957458,102.680092 
	C339.618134,105.629105 344.133240,102.981728 345.476562,96.928497 
	C347.949097,99.752335 347.949097,99.752335 342.793518,106.605438 
	C346.306549,108.947121 349.773315,111.297943 353.279572,113.588249 
	C368.609039,123.601486 381.524872,135.975555 392.601685,150.683304 
	C403.963531,165.769485 411.621826,182.372437 417.071411,200.220001 
	C417.215546,200.692047 417.172821,201.467087 417.462585,201.612793 
	C424.760895,205.282486 421.363220,211.996826 421.943146,217.515381 
	C422.272400,220.648621 420.808044,224.775482 422.339569,226.798035 
	C424.969208,230.270874 424.982849,234.230179 426.467255,237.831802 
	C427.270752,239.781433 427.769012,241.916214 428.007324,244.012680 
	C428.115356,244.963074 427.256500,246.023407 426.836304,247.033875 
	C426.189758,246.041519 425.433624,245.100876 424.933014,244.039688 
	C424.563416,243.256195 424.527100,242.315506 424.342285,241.444855 
	C423.844788,241.509781 423.347260,241.574707 422.849762,241.639633 
	C423.318329,244.871246 423.208832,248.329788 424.370636,251.289246 
	C427.154480,258.380524 426.530029,264.623108 421.363861,269.972107 
	C422.203461,272.157288 422.934296,274.059448 423.745422,276.170532 
	C418.121429,276.173798 417.005829,278.219971 418.152740,284.288483 
	C418.778107,287.597565 418.874756,291.006561 419.267242,294.946625 
	C416.973450,294.290680 415.608429,293.900360 414.346619,293.539520 
	C413.941315,293.912811 413.505676,294.118835 413.483246,294.362885 
	C412.568420,304.304077 405.915588,311.625732 400.810730,319.204468 
	C391.723602,332.695312 380.833374,344.963196 370.880676,357.883881 
	C367.162689,362.710663 363.996979,367.960052 360.503906,372.964020 
	C358.425720,375.941162 357.576294,380.199524 352.663910,380.320862 
	C351.451508,380.350830 350.262054,381.309906 349.062012,381.841827 
	C349.550507,382.466980 350.039032,383.092133 350.527527,383.717285 
	C355.708557,382.796936 360.889618,381.876556 366.016144,380.965881 
	C364.799438,384.204437 364.311310,387.527496 362.504517,389.804016 
	C360.211060,392.693726 356.941223,394.859863 353.922058,397.109406 
	C350.021576,400.015533 346.217468,403.273071 341.862976,405.269440 
	C338.975342,406.593323 335.195953,405.972168 331.401428,406.252289 
	C331.037262,407.813690 330.563629,409.844299 329.928192,412.568817 
	C333.078827,413.244232 336.041565,413.879364 339.394958,414.598267 
	C338.420532,416.193939 337.438599,417.801971 335.790039,420.501648 
	C335.062592,415.690796 333.018005,414.812744 329.763458,416.576019 
	C329.103180,416.933746 327.848724,417.142548 327.385071,416.772400 
	C320.906586,411.601624 314.695129,416.431427 308.361664,417.055756 
	C306.303711,417.258636 303.697815,417.114594 302.130219,416.010712 
	C298.716736,413.606934 296.290100,414.361115 294.392059,417.468048 
	C292.484375,420.590759 291.827301,423.893951 295.950592,427.047028 
	C289.155243,426.719421 290.853333,421.637604 289.418884,417.504822 
	C270.794464,422.000336 251.742661,425.289764 231.593628,422.774353 
	C231.093475,425.090454 230.645462,427.165131 230.082260,429.773163 
	C222.215088,430.636475 214.308502,428.400452 206.932373,424.880859 
	C197.235062,420.253662 187.507370,415.460785 178.531433,409.606598 
	C166.002594,401.435211 153.783081,392.679596 142.147293,383.286865 
	C134.148926,376.830383 127.258530,368.970734 120.123703,361.498749 
	C118.547890,359.848480 117.731384,357.271637 117.087082,354.975067 
	C115.703125,350.041931 113.952599,345.901886 109.010399,342.972198 
	C106.336113,341.386932 105.301971,337.034790 103.915512,334.608948 
	C104.384193,332.823914 105.201477,331.468842 104.884506,330.475800 
	C104.483612,329.219818 103.131767,328.280579 102.241646,327.163605 
	C101.458351,326.180756 100.242897,325.213043 100.086304,324.114868 
	C99.245110,318.215546 98.675163,312.277527 97.922195,305.555145 
	C96.855301,307.344452 96.288712,308.294678 95.722122,309.244904 
	C95.250114,309.334473 94.778107,309.424072 94.306107,309.513641 
	C89.795815,292.291687 85.285530,275.069733 80.637016,257.320007 
	C82.695030,257.540649 83.917244,257.671692 85.217880,257.811127 
	C85.485199,257.244995 85.727951,256.834015 85.880814,256.391968 
	C89.178291,246.855911 87.104263,237.825195 83.985985,228.610657 
	C82.259308,223.508347 82.196068,217.843109 81.383026,212.431610 
	C82.155304,212.211121 82.927582,211.990631 83.699867,211.770142 
	C84.472572,213.828812 85.593315,215.830612 85.941200,217.958740 
	C86.552383,221.697601 86.487251,225.549911 87.149330,229.275818 
	C87.351074,230.411148 89.009888,231.287582 90.446365,231.788315 
	C87.683632,225.989624 90.160934,220.462952 90.449242,215.095734 
	C90.656967,211.228577 92.596031,207.440964 92.711098,203.586472 
	C92.805687,200.418106 91.283852,197.217667 90.626480,194.001175 
	C90.419418,192.988037 90.301376,191.607544 90.817085,190.861298 
	C92.370247,188.613785 94.255402,186.595673 96.166382,184.301682 
	C97.633827,186.068665 98.945404,187.647964 100.705727,189.767609 
	C101.234871,188.474182 101.781250,187.591949 101.954712,186.641678 
	C103.158371,180.047165 104.347382,173.448593 105.407242,166.829880 
	C105.888237,163.826126 106.014488,160.767075 106.408157,157.746979 
	C106.526756,156.837112 106.819832,155.839966 107.349426,155.113495 
	C109.244591,152.513748 113.101364,151.377579 111.589394,146.423721 
	C111.069328,144.719772 115.024780,141.649841 117.112785,138.977249 
	C113.621338,137.482147 113.344559,136.007767 115.898430,133.489471 
	C122.990341,126.496346 130.999268,120.927650 139.922424,116.552216 
	C144.182556,114.463280 144.237289,112.936790 140.356888,109.533501 
	C149.717682,99.845978 161.365280,94.707954 174.594757,91.670059 
M380.000000,300.000000 
	C380.000000,300.000000 380.022217,300.023590 380.397614,299.736420 
	C380.636536,299.528076 380.845154,299.292847 381.000000,299.000000 
	C381.000000,299.000000 381.030853,299.023590 381.404419,298.733612 
	C381.641663,298.522827 381.847198,298.284729 382.010040,298.017242 
	C382.010040,298.017242 382.023438,298.034515 382.776459,298.109100 
	C389.830170,300.415558 396.883881,302.722046 403.937592,305.028503 
	C404.098602,304.521942 404.259644,304.015350 404.420654,303.508789 
	C396.891388,301.021332 389.362091,298.533875 381.100677,295.967102 
	C367.066101,290.913147 353.031525,285.859192 338.458801,280.400024 
	C336.973694,279.930237 335.488586,279.460449 334.002350,279.002808 
	C334.002350,279.002808 334.016083,279.004822 333.491028,278.523804 
	C331.653107,278.011688 329.815186,277.499573 327.999725,277.000763 
	C327.999725,277.000763 328.024292,277.009430 327.499603,276.533569 
	C323.019775,274.928802 318.539948,273.324066 313.600464,271.276428 
	C312.626221,270.880280 311.652008,270.484131 309.936127,270.075989 
	C293.242249,264.194336 276.548370,258.312714 259.854523,252.431091 
	C259.478271,253.004196 259.102020,253.577316 258.725769,254.150421 
	C260.524567,255.590744 262.156372,257.919647 264.155212,258.295227 
	C269.029816,259.211121 270.090088,261.781097 269.966766,266.323486 
	C269.673279,277.134155 270.119720,287.966400 269.762848,298.773254 
	C269.595947,303.828003 271.159912,305.291351 276.219208,305.253265 
	C305.677551,305.031372 335.138947,305.051208 364.597900,305.229095 
	C369.970001,305.261566 374.824554,304.613586 379.373383,300.735870 
	C379.619446,300.524719 379.836029,300.286743 380.000000,300.000000 
M161.590515,216.454926 
	C160.580856,215.988846 159.571213,215.522781 157.836624,215.056808 
	C145.238129,210.655518 132.639618,206.254227 119.509895,201.667358 
	C119.330864,204.253555 119.141083,205.723740 119.140259,207.194016 
	C119.123108,237.998108 119.133446,268.802185 119.117493,299.606293 
	C119.115959,302.559875 118.907364,305.268829 123.309296,305.192261 
	C133.796127,305.009735 144.288620,305.082886 154.777969,305.164032 
	C157.547165,305.185455 158.704834,304.066010 158.676254,301.333069 
	C158.620499,296.005646 158.589661,290.674194 158.750793,285.350525 
	C158.798279,283.782166 159.016022,281.647430 160.023987,280.772308 
	C166.619720,275.045685 173.453827,269.593628 180.607315,263.725983 
	C182.641586,267.172211 184.270035,269.848785 185.819351,272.570435 
	C191.255188,282.119537 196.765518,291.628723 202.020416,301.276764 
	C203.587784,304.154480 205.500854,305.241272 208.736435,305.202271 
	C220.889801,305.055786 233.046036,305.159393 245.201050,305.123169 
	C246.595673,305.119019 247.989441,304.825226 250.312317,304.559479 
	C236.083298,281.633179 222.296143,259.418854 208.508987,237.204514 
	C210.948257,236.999908 212.616364,237.550278 214.212250,238.262482 
	C221.356918,241.450897 228.413513,244.851868 235.658737,247.789261 
	C237.529755,248.547806 239.969589,247.903275 242.148132,247.903275 
	C242.242340,247.221863 242.336548,246.540451 242.430771,245.859055 
	C219.342133,237.586838 196.253510,229.314636 172.682861,220.505051 
	C169.152237,219.299957 165.621597,218.094864 161.590515,216.454926 
M118.471397,188.793304 
	C117.762726,195.071381 121.064438,197.644821 126.794258,199.316208 
	C135.390930,201.823883 143.701431,205.310028 152.142563,208.355270 
	C154.238983,209.111588 156.369781,209.772644 158.977692,210.641754 
	C158.977692,203.210861 159.003159,196.581284 158.971741,189.951965 
	C158.924118,179.900955 159.854874,180.948059 149.840256,180.845261 
	C141.539902,180.760086 133.239014,180.513855 124.940598,180.588211 
	C122.594322,180.609238 120.255898,181.505920 117.250397,182.005615 
	C116.556549,181.273376 115.862701,180.541153 115.176346,179.816818 
	C111.771553,182.417343 107.270653,184.019196 107.933289,189.853668 
	C108.421684,194.153900 108.029175,198.554214 108.029175,202.909927 
	C108.472107,203.008392 108.915031,203.106842 109.357964,203.205307 
	C112.272896,198.176346 115.187836,193.147400 118.471397,188.793304 
M269.870850,189.568817 
	C269.870850,208.125839 269.870850,226.682846 269.870850,244.747604 
	C265.927063,244.992081 262.960083,245.176025 259.993073,245.359955 
	C259.953796,246.018280 259.914490,246.676620 259.875214,247.334946 
	C276.202454,253.236542 292.529694,259.138153 309.584320,265.302673 
	C309.725922,262.624176 309.934265,260.852295 309.886078,259.087433 
	C309.813751,256.437927 310.784607,255.042450 313.628235,255.064926 
	C322.625427,255.136078 331.628632,254.935654 340.618744,255.203156 
	C345.341583,255.343674 348.217377,258.320404 349.191376,262.916840 
	C350.470673,268.953796 348.187073,273.541534 341.979614,277.177429 
	C345.500153,278.212585 347.981567,279.525665 350.490570,279.580750 
	C362.480194,279.843903 374.478912,279.860199 386.469269,279.659515 
	C387.634918,279.640045 389.649506,277.621796 389.777161,276.378143 
	C391.216339,262.355652 387.396057,248.476624 371.325378,242.533646 
	C370.137177,242.094238 369.019165,241.465027 367.461914,240.732864 
	C368.453583,240.088165 368.947083,239.637985 369.527802,239.408936 
	C381.057831,234.861267 386.515167,226.239883 387.170288,214.016052 
	C387.871582,200.931870 382.410339,191.111176 371.059448,185.358124 
	C365.635284,182.608917 359.002045,181.173294 352.880676,181.059128 
	C327.727722,180.589951 302.560974,180.854080 277.399323,180.855209 
	C269.907593,180.855530 269.907593,180.865601 269.870850,189.568817 
M215.522324,180.848007 
	C207.353607,179.709198 201.102844,181.787231 195.944733,189.113159 
	C189.380783,198.435760 181.441330,206.789871 173.597336,216.155563 
	C196.861557,224.556076 219.900269,232.875153 242.938995,241.194244 
	C243.235001,240.451324 243.531021,239.708420 243.827026,238.965515 
	C235.693802,230.468948 222.679794,232.883301 213.004517,226.764725 
	C226.095871,211.668121 238.928955,196.869324 251.762039,182.070526 
	C251.471786,181.662903 251.181534,181.255264 250.891281,180.847626 
	C239.432739,180.847626 227.974197,180.847626 215.522324,180.848007 
M156.410461,112.154732 
	C157.185638,110.669334 157.960815,109.183937 159.419540,106.388725 
	C155.185577,108.298767 152.287216,109.606300 149.388855,110.913826 
	C149.831741,111.156876 150.274643,111.399933 150.717545,111.642990 
	C149.597107,116.511681 148.476669,121.380371 147.366791,126.203186 
	C151.067200,124.704964 154.537506,123.254311 158.042709,121.893486 
	C161.591782,120.515633 165.175354,119.226631 168.306625,118.061409 
	C167.753540,114.923241 167.415176,113.003326 167.177155,111.652748 
	C170.558655,110.633003 173.235184,110.091537 175.684570,109.027290 
	C179.742752,107.264038 183.527985,104.820534 187.661591,103.296700 
	C192.405060,101.548042 191.400314,98.624313 190.610596,94.955605 
	C182.634460,98.696480 177.178467,105.229431 168.178375,108.469543 
	C169.833511,106.270897 171.049988,104.946014 171.896210,103.416313 
	C172.366455,102.566238 172.219116,101.374504 172.350113,100.336761 
	C171.218323,100.439949 169.674713,100.125145 169.048798,100.741806 
	C168.045547,101.730217 167.616745,103.320671 167.005524,104.683739 
	C166.020401,106.880676 165.553024,109.520569 164.027298,111.219170 
	C161.104767,114.472847 157.592590,117.196899 153.820496,120.595322 
	C154.672821,117.722900 155.396530,115.283890 156.410461,112.154732 
M100.051010,209.650345 
	C98.246552,213.147720 99.186813,216.080597 102.272087,219.528824 
	C103.499252,216.500626 104.472717,214.098450 105.026810,212.731171 
	C102.929573,211.133896 101.635139,210.148056 100.051010,209.650345 
M255.526840,244.125671 
	C253.214478,239.454056 251.797745,239.097778 246.983643,243.232178 
	C250.326370,243.828781 252.830460,244.275711 255.526840,244.125671 
z"/>
<path fill="#55097D" opacity="1.000000" stroke="none" 
	d="
M260.860352,429.989349 
	C253.557144,429.118103 246.666458,428.246979 239.775787,427.375885 
	C239.809372,426.974426 239.842941,426.572998 239.876526,426.171539 
	C249.849335,425.288361 259.822144,424.405182 269.794952,423.521973 
	C269.880585,423.856201 269.966248,424.190430 270.051910,424.524689 
	C269.127167,425.277252 268.202393,426.029816 266.631927,427.307831 
	C267.938751,427.926178 269.102081,428.476593 270.265381,429.027008 
	C270.034454,429.347809 269.803497,429.668640 269.572571,429.989471 
	C266.806000,429.989471 264.039429,429.989471 260.860352,429.989349 
z"/>
<path fill="#560B7E" opacity="1.000000" stroke="none" 
	d="
M377.154663,367.499695 
	C377.434387,369.027100 378.247284,371.001862 377.939056,371.195862 
	C376.648285,372.008545 375.021454,372.287354 373.528015,372.758545 
	C373.277588,365.274597 376.809662,360.778564 382.592773,356.949707 
	C382.592773,360.048737 382.592773,362.695770 382.592773,365.254211 
	C380.658112,365.922974 378.915161,366.525452 377.154663,367.499695 
z"/>
<path fill="#570D7F" opacity="1.000000" stroke="none" 
	d="
M402.653687,344.195007 
	C401.433960,346.361877 400.018829,348.188904 398.603699,350.015900 
	C398.011383,349.702820 397.419067,349.389709 396.826752,349.076630 
	C397.545105,345.723541 398.263458,342.370483 399.211487,337.945221 
	C397.491608,339.567413 396.559143,340.446899 394.780975,342.124054 
	C395.363556,339.783112 395.329712,338.284058 396.054321,337.424438 
	C396.943787,336.369324 398.853760,334.961609 399.628204,335.299194 
	C400.871521,335.841156 401.911499,337.577057 402.357544,339.018768 
	C402.815735,340.499512 402.458557,342.232513 402.653687,344.195007 
z"/>
<path fill="#5A1081" opacity="1.000000" stroke="none" 
	d="
M84.107437,190.362030 
	C81.052322,193.090012 78.174782,195.518509 75.142891,198.077271 
	C74.544495,195.544327 73.995758,193.221619 73.157860,189.674942 
	C74.963837,191.320908 75.817696,192.099121 77.191414,193.351135 
	C78.849724,190.929184 80.367508,188.712463 82.431862,185.697495 
	C83.107910,187.289902 83.696457,188.676224 84.107437,190.362030 
z"/>
<path fill="#5A1081" opacity="1.000000" stroke="none" 
	d="
M392.579285,363.651855 
	C390.431610,366.326050 388.253937,366.905853 385.439484,364.848145 
	C386.599579,362.642456 387.690002,360.569214 389.475189,357.175018 
	C390.901062,359.833191 391.842163,361.587585 392.579285,363.651855 
z"/>
<path fill="#570D7F" opacity="1.000000" stroke="none" 
	d="
M406.873840,325.284119 
	C405.566376,327.731232 404.689423,330.471039 400.900146,328.033600 
	C401.716583,325.558105 402.563202,322.991089 403.409821,320.424072 
	C403.808319,320.236023 404.206848,320.048004 404.605347,319.859955 
	C405.401398,321.556305 406.197449,323.252625 406.873840,325.284119 
z"/>
<path fill="#55097D" opacity="1.000000" stroke="none" 
	d="
M230.619141,76.067032 
	C229.825592,73.749489 229.733292,72.130173 232.581772,72.012566 
	C235.471817,71.893242 237.433258,72.612747 237.220520,77.056602 
	C235.043167,76.826309 232.941391,76.604004 230.619141,76.067032 
z"/>
<path fill="#892CDB" opacity="1.000000" stroke="none" 
	d="
M269.870697,189.082199 
	C269.907593,180.865601 269.907593,180.855530 277.399323,180.855209 
	C302.560974,180.854080 327.727722,180.589951 352.880676,181.059128 
	C359.002045,181.173294 365.635284,182.608917 371.059448,185.358124 
	C382.410339,191.111176 387.871582,200.931870 387.170288,214.016052 
	C386.515167,226.239883 381.057831,234.861267 369.527802,239.408936 
	C368.947083,239.637985 368.453583,240.088165 367.461914,240.732864 
	C369.019165,241.465027 370.137177,242.094238 371.325378,242.533646 
	C387.396057,248.476624 391.216339,262.355652 389.777161,276.378143 
	C389.649506,277.621796 387.634918,279.640045 386.469269,279.659515 
	C374.478912,279.860199 362.480194,279.843903 350.490570,279.580750 
	C347.981567,279.525665 345.500153,278.212585 341.979614,277.177429 
	C348.187073,273.541534 350.470673,268.953796 349.191376,262.916840 
	C348.217377,258.320404 345.341583,255.343674 340.618744,255.203156 
	C331.628632,254.935654 322.625427,255.136078 313.628235,255.064926 
	C310.784607,255.042450 309.813751,256.437927 309.886078,259.087433 
	C309.934265,260.852295 309.725922,262.624176 309.584320,265.302673 
	C292.529694,259.138153 276.202454,253.236542 259.875214,247.334946 
	C259.914490,246.676620 259.953796,246.018280 259.993073,245.359955 
	C262.960083,245.176025 265.927063,244.992081 269.870850,244.747604 
	C269.870850,226.682846 269.870850,208.125839 269.870697,189.082199 
M309.888397,220.451050 
	C309.900909,229.201477 309.900909,229.204132 318.449615,229.202530 
	C324.277924,229.201431 330.107269,229.258331 335.934265,229.168549 
	C342.941315,229.060593 346.669617,225.437332 346.703400,218.882919 
	C346.737457,212.276413 342.686920,208.231720 335.707794,208.078995 
	C330.880829,207.973343 326.049896,208.049835 321.220734,208.044952 
	C309.889496,208.033524 309.889496,208.033508 309.888397,220.451050 
z"/>
<path fill="#121212" opacity="1.000000" stroke="none" 
	d="
M173.164886,221.042435 
	C196.253510,229.314636 219.342133,237.586838 242.430771,245.859055 
	C242.336548,246.540451 242.242340,247.221863 242.148132,247.903275 
	C239.969589,247.903275 237.529755,248.547806 235.658737,247.789261 
	C228.413513,244.851868 221.356918,241.450897 214.212250,238.262482 
	C212.616364,237.550278 210.948257,236.999908 208.508987,237.204514 
	C222.296143,259.418854 236.083298,281.633179 250.312317,304.559479 
	C247.989441,304.825226 246.595673,305.119019 245.201050,305.123169 
	C233.046036,305.159393 220.889801,305.055786 208.736435,305.202271 
	C205.500854,305.241272 203.587784,304.154480 202.020416,301.276764 
	C196.765518,291.628723 191.255188,282.119537 185.819351,272.570435 
	C184.270035,269.848785 182.641586,267.172211 180.607315,263.725983 
	C173.453827,269.593628 166.619720,275.045685 160.023987,280.772308 
	C159.016022,281.647430 158.798279,283.782166 158.750793,285.350525 
	C158.589661,290.674194 158.620499,296.005646 158.676254,301.333069 
	C158.704834,304.066010 157.547165,305.185455 154.777969,305.164032 
	C144.288620,305.082886 133.796127,305.009735 123.309296,305.192261 
	C118.907364,305.268829 119.115959,302.559875 119.117493,299.606293 
	C119.133446,268.802185 119.123108,237.998108 119.140259,207.194016 
	C119.141083,205.723740 119.330864,204.253555 119.509895,201.667358 
	C132.639618,206.254227 145.238129,210.655518 158.228790,215.521027 
	C158.631622,221.947281 158.574280,227.911087 158.727478,233.869461 
	C158.750015,234.745834 159.771530,235.596527 160.598480,236.261459 
	C164.606613,231.486374 168.347092,226.908936 172.307800,222.154007 
	C172.740295,221.665161 172.952591,221.353790 173.164886,221.042435 
z"/>
<path fill="#121112" opacity="1.000000" stroke="none" 
	d="
M338.996948,280.805237 
	C353.031525,285.859192 367.066101,290.913147 381.526001,296.335327 
	C381.975342,297.147217 381.999390,297.590851 382.023438,298.034515 
	C382.023438,298.034515 382.010040,298.017242 381.813416,298.146240 
	C381.363708,298.479492 381.168396,298.728943 381.030853,299.023590 
	C381.030853,299.023590 381.000000,299.000000 380.807190,299.139771 
	C380.357758,299.480408 380.160370,299.728424 380.022217,300.023590 
	C380.022217,300.023590 380.000000,300.000000 379.802490,300.138062 
	C379.344055,300.482025 379.138763,300.733398 378.989075,301.030212 
	C374.824554,304.613586 369.970001,305.261566 364.597900,305.229095 
	C335.138947,305.051208 305.677551,305.031372 276.219208,305.253265 
	C271.159912,305.291351 269.595947,303.828003 269.762848,298.773254 
	C270.119720,287.966400 269.673279,277.134155 269.966766,266.323486 
	C270.090088,261.781097 269.029816,259.211121 264.155212,258.295227 
	C262.156372,257.919647 260.524567,255.590744 258.725769,254.150421 
	C259.102020,253.577316 259.478271,253.004196 259.854523,252.431091 
	C276.548370,258.312714 293.242249,264.194336 310.168396,270.451355 
	C310.260437,273.870544 310.120239,276.914368 310.235291,280.304871 
	C319.992645,280.702789 329.494812,280.754028 338.996948,280.805237 
z"/>
<path fill="#882BD9" opacity="1.000000" stroke="none" 
	d="
M216.018982,180.847809 
	C227.974197,180.847626 239.432739,180.847626 250.891281,180.847626 
	C251.181534,181.255264 251.471786,181.662903 251.762039,182.070526 
	C238.928955,196.869324 226.095871,211.668121 213.004517,226.764725 
	C222.679794,232.883301 235.693802,230.468948 243.827026,238.965515 
	C243.531021,239.708420 243.235001,240.451324 242.938995,241.194244 
	C219.900269,232.875153 196.861557,224.556076 173.597336,216.155563 
	C181.441330,206.789871 189.380783,198.435760 195.944733,189.113159 
	C201.102844,181.787231 207.353607,179.709198 216.018982,180.847809 
z"/>
<path fill="#892CDA" opacity="1.000000" stroke="none" 
	d="
M117.913872,182.001007 
	C120.255898,181.505920 122.594322,180.609238 124.940598,180.588211 
	C133.239014,180.513855 141.539902,180.760086 149.840256,180.845261 
	C159.854874,180.948059 158.924118,179.900955 158.971741,189.951965 
	C159.003159,196.581284 158.977692,203.210861 158.977692,210.641754 
	C156.369781,209.772644 154.238983,209.111588 152.142563,208.355270 
	C143.701431,205.310028 135.390930,201.823883 126.794258,199.316208 
	C121.064438,197.644821 117.762726,195.071381 118.228333,188.017258 
	C117.961464,185.494476 117.937668,183.747742 117.913872,182.001007 
z"/>
<path fill="#000000" opacity="1.000000" stroke="none" 
	d="
M156.265350,112.499802 
	C155.396530,115.283890 154.672821,117.722900 153.820496,120.595322 
	C157.592590,117.196899 161.104767,114.472847 164.027298,111.219170 
	C165.553024,109.520569 166.020401,106.880676 167.005524,104.683739 
	C167.616745,103.320671 168.045547,101.730217 169.048798,100.741806 
	C169.674713,100.125145 171.218323,100.439949 172.350113,100.336761 
	C172.219116,101.374504 172.366455,102.566238 171.896210,103.416313 
	C171.049988,104.946014 169.833511,106.270897 168.178375,108.469543 
	C177.178467,105.229431 182.634460,98.696480 190.610596,94.955605 
	C191.400314,98.624313 192.405060,101.548042 187.661591,103.296700 
	C183.527985,104.820534 179.742752,107.264038 175.684570,109.027290 
	C173.235184,110.091537 170.558655,110.633003 167.177155,111.652748 
	C167.415176,113.003326 167.753540,114.923241 168.306625,118.061409 
	C165.175354,119.226631 161.591782,120.515633 158.042709,121.893486 
	C154.537506,123.254311 151.067200,124.704964 147.366791,126.203186 
	C148.476669,121.380371 149.597107,116.511681 150.717545,111.642990 
	C150.274643,111.399933 149.831741,111.156876 149.388855,110.913826 
	C152.287216,109.606300 155.185577,108.298767 159.419540,106.388725 
	C157.960815,109.183937 157.185638,110.669334 156.265350,112.499802 
z"/>
<path fill="#000000" opacity="1.000000" stroke="none" 
	d="
M117.582138,182.003311 
	C117.937668,183.747742 117.961464,185.494476 118.044022,187.679825 
	C115.187836,193.147400 112.272896,198.176346 109.357964,203.205307 
	C108.915031,203.106842 108.472107,203.008392 108.029175,202.909927 
	C108.029175,198.554214 108.421684,194.153900 107.933289,189.853668 
	C107.270653,184.019196 111.771553,182.417343 115.176346,179.816818 
	C115.862701,180.541153 116.556549,181.273376 117.582138,182.003311 
z"/>
<path fill="#520879" opacity="1.000000" stroke="none" 
	d="
M309.980042,279.958191 
	C310.120239,276.914368 310.260437,273.870544 310.539185,270.457336 
	C311.652008,270.484131 312.626221,270.880280 313.852264,271.762329 
	C318.744141,273.835327 323.384216,275.422363 328.024292,277.009430 
	C328.024292,277.009430 327.999725,277.000763 328.255493,277.230835 
	C330.346222,277.975555 332.181152,278.490173 334.016083,279.004822 
	C334.016083,279.004822 334.002350,279.002808 333.637512,279.189789 
	C325.508453,279.570587 317.744232,279.764404 309.980042,279.958191 
z"/>
<path fill="#572473" opacity="1.000000" stroke="none" 
	d="
M382.399963,298.071808 
	C381.999390,297.590851 381.975342,297.147217 381.892059,296.375000 
	C389.362091,298.533875 396.891388,301.021332 404.420654,303.508789 
	C404.259644,304.015350 404.098602,304.521942 403.937592,305.028503 
	C396.883881,302.722046 389.830170,300.415558 382.399963,298.071808 
z"/>
<path fill="#000000" opacity="1.000000" stroke="none" 
	d="
M100.195862,209.406281 
	C101.635139,210.148056 102.929573,211.133896 105.026810,212.731171 
	C104.472717,214.098450 103.499252,216.500626 102.272087,219.528824 
	C99.186813,216.080597 98.246552,213.147720 100.195862,209.406281 
z"/>
<path fill="#8326C9" opacity="1.000000" stroke="none" 
	d="
M255.430695,244.424164 
	C252.830460,244.275711 250.326370,243.828781 246.983643,243.232178 
	C251.797745,239.097778 253.214478,239.454056 255.430695,244.424164 
z"/>
<path fill="#5E2A7A" opacity="1.000000" stroke="none" 
	d="
M310.235260,280.304871 
	C317.744232,279.764404 325.508453,279.570587 333.638092,279.183716 
	C335.488586,279.460449 336.973694,279.930237 338.727875,280.602631 
	C329.494812,280.754028 319.992645,280.702789 310.235260,280.304871 
z"/>
<path fill="#5F2180" opacity="1.000000" stroke="none" 
	d="
M160.330826,236.459106 
	C159.771530,235.596527 158.750015,234.745834 158.727478,233.869461 
	C158.574280,227.911087 158.631622,221.947281 158.591263,215.520966 
	C159.571213,215.522781 160.580856,215.988846 161.809494,216.718109 
	C162.028473,216.981277 161.971100,217.071320 161.644394,217.259613 
	C160.988739,223.784973 160.659790,230.122040 160.330826,236.459106 
z"/>
<path fill="#5E2A7A" opacity="1.000000" stroke="none" 
	d="
M327.761963,276.771484 
	C323.384216,275.422363 318.744141,273.835327 314.082092,271.983795 
	C318.539948,273.324066 323.019775,274.928802 327.761963,276.771484 
z"/>
<path fill="#5F2180" opacity="1.000000" stroke="none" 
	d="
M172.923874,220.773743 
	C172.952591,221.353790 172.740295,221.665161 172.045731,221.895386 
	C168.365997,220.233276 165.168549,218.652298 161.971100,217.071320 
	C161.971100,217.071320 162.028473,216.981277 162.059723,216.935532 
	C165.621597,218.094864 169.152237,219.299957 172.923874,220.773743 
z"/>
<path fill="#5E2A7A" opacity="1.000000" stroke="none" 
	d="
M333.753540,278.764313 
	C332.181152,278.490173 330.346222,277.975555 328.244263,277.224182 
	C329.815186,277.499573 331.653107,278.011688 333.753540,278.764313 
z"/>
<path fill="#572473" opacity="1.000000" stroke="none" 
	d="
M380.209900,299.880005 
	C380.160370,299.728424 380.357758,299.480408 380.818939,299.155151 
	C380.845154,299.292847 380.636536,299.528076 380.209900,299.880005 
z"/>
<path fill="#572473" opacity="1.000000" stroke="none" 
	d="
M379.181213,300.883057 
	C379.138763,300.733398 379.344055,300.482025 379.814056,300.148987 
	C379.836029,300.286743 379.619446,300.524719 379.181213,300.883057 
z"/>
<path fill="#572473" opacity="1.000000" stroke="none" 
	d="
M381.217651,298.878601 
	C381.168396,298.728943 381.363708,298.479492 381.818939,298.147247 
	C381.847198,298.284729 381.641663,298.522827 381.217651,298.878601 
z"/>
<path fill="#54067D" opacity="1.000000" stroke="none" 
	d="
M309.888245,219.963684 
	C309.889496,208.033508 309.889496,208.033524 321.220734,208.044952 
	C326.049896,208.049835 330.880829,207.973343 335.707794,208.078995 
	C342.686920,208.231720 346.737457,212.276413 346.703400,218.882919 
	C346.669617,225.437332 342.941315,229.060593 335.934265,229.168549 
	C330.107269,229.258331 324.277924,229.201431 318.449615,229.202530 
	C309.900909,229.204132 309.900909,229.201477 309.888245,219.963684 
z"/>
<path fill="#520978" opacity="1.000000" stroke="none" 
	d="
M161.644394,217.259613 
	C165.168549,218.652298 168.365997,220.233276 171.825500,222.072876 
	C168.347092,226.908936 164.606613,231.486374 160.598480,236.261459 
	C160.659790,230.122040 160.988739,223.784973 161.644394,217.259613 
z"/>
</svg>